<svg width="386" height="563" viewBox="0 0 386 563" fill="none" xmlns="http://www.w3.org/2000/svg">
<mask id="mask0_2_83" style="mask-type:alpha" maskUnits="userSpaceOnUse" x="0" y="17" width="387" height="546">
<rect x="0.409912" y="17.2259" width="385.894" height="545.536" fill="#D9D9D9" style="fill:#D9D9D9;fill:color(display-p3 0.8510 0.8510 0.8510);fill-opacity:1;"/>
</mask>
<g mask="url(#mask0_2_83)">
<path d="M0.409973 407.412C0.579973 405.542 0.779973 403.692 1.03997 401.922C0.759973 403.882 0.559973 405.702 0.409973 407.412Z" fill="#009293" style="fill:#009293;fill:color(display-p3 0.0000 0.5725 0.5765);fill-opacity:1;"/>
<path d="M1.44 399.532C1.77 397.622 2.11 395.722 2.53 393.932C2.1 395.872 1.74 397.732 1.44 399.532Z" fill="#009293" style="fill:#009293;fill:color(display-p3 0.0000 0.5725 0.5765);fill-opacity:1;"/>
<path d="M22.6 354.272C19.37 359.892 20.72 368.272 24.49 372.872C29.84 379.382 35.86 381.982 35.86 381.982L246.71 480.492L369.68 394.342L536.15 283.892L537.71 0.511528L37.01 342.892C25.66 351.512 22.6 354.262 22.6 354.262V354.272Z" fill="#B09B50" style="fill:#B09B50;fill:color(display-p3 0.6902 0.6078 0.3137);fill-opacity:1;"/>
<path d="M48.73 624.002C44.84 630.642 44.36 641.722 51.34 650.182L51.3 650.161C51.31 650.161 51.32 650.172 51.33 650.182C61.62 655.612 73.89 662.082 89.2 668.982L506.02 866.762L538.24 881.362C534.18 875.432 533.34 873.771 529.99 865.471C528.3 861.281 525.5 852.562 523.15 840.882C515.03 800.602 816.8 740.182 816.8 740.182L246.72 480.492L60.78 610.762C60.78 610.762 53.93 615.122 48.73 624.002Z" fill="#EDD826" style="fill:#EDD826;fill:color(display-p3 0.9294 0.8471 0.1490);fill-opacity:1;"/>
<g style="mix-blend-mode:darken">
<path d="M1.03998 401.922C1.14998 401.162 1.30998 400.332 1.43998 399.532C1.29998 400.322 1.15998 401.102 1.03998 401.922Z" fill="#CFDD2F" style="fill:#CFDD2F;fill:color(display-p3 0.8118 0.8667 0.1843);fill-opacity:1;"/>
</g>
<g style="mix-blend-mode:darken">
<path d="M2.53003 393.942C2.55003 393.842 2.57003 393.742 2.60003 393.642C2.58003 393.742 2.56003 393.842 2.53003 393.942Z" fill="#CFDD2F" style="fill:#CFDD2F;fill:color(display-p3 0.8118 0.8667 0.1843);fill-opacity:1;"/>
</g>
<g style="mix-blend-mode:darken">
<path d="M0.159973 410.752C0.219973 409.722 0.309973 408.592 0.409973 407.412C0.309973 408.512 0.229973 409.622 0.159973 410.752Z" fill="#CFDD2F" style="fill:#CFDD2F;fill:color(display-p3 0.8118 0.8667 0.1843);fill-opacity:1;"/>
</g>
<path d="M24.5 372.872C20.72 368.272 19.38 359.892 22.61 354.272C22.61 354.272 8.23001 367.742 2.60001 393.642C2.58001 393.742 2.56001 393.842 2.53001 393.942C2.11001 395.732 1.77001 397.632 1.44001 399.542C1.31001 400.332 1.15001 401.172 1.04001 401.932C0.780009 403.702 0.580009 405.552 0.410009 407.422C0.300009 408.602 0.220009 409.722 0.160009 410.762C0.0700089 412.182 0.0400089 413.652 0.0100089 415.122C-0.0199911 417.762 0.0800089 419.362 0.0800089 419.362L14.1 584.272C15.16 596.692 17.94 606.962 21.53 615.422C21.8 616.042 22.1 616.692 22.39 617.322C22.98 618.632 23.59 619.902 24.21 621.122C24.49 621.672 24.78 622.212 25.07 622.762C32.22 635.882 41.02 643.472 46.41 647.212C47.97 648.262 49.58 649.272 51.3 650.172L51.34 650.192C44.36 641.732 44.84 630.642 48.73 624.012C53.93 615.132 60.78 610.772 60.78 610.772L246.72 480.502L35.87 381.992C35.87 381.992 29.85 379.392 24.5 372.882V372.872Z" fill="#918350" style="fill:#918350;fill:color(display-p3 0.5686 0.5137 0.3137);fill-opacity:1;"/>
</g>
</svg>
