<svg width="58" height="82" viewBox="0 0 58 82" fill="none" xmlns="http://www.w3.org/2000/svg">
<path d="M57.8724 59.4629C57.8531 59.6364 57.8339 59.8035 57.8146 59.9705C57.8403 59.7778 57.8596 59.6107 57.8724 59.4629Z" fill="#009294" style="fill:#009294;fill:color(display-p3 0.0000 0.5725 0.5804);fill-opacity:1;"/>
<path d="M57.7506 60.3561C57.712 60.5746 57.6735 60.7867 57.6221 60.9859C57.6735 60.761 57.712 60.5489 57.7506 60.3561Z" fill="#009294" style="fill:#009294;fill:color(display-p3 0.0000 0.5725 0.5804);fill-opacity:1;"/>
<path d="M57.5515 61.2557C57.4937 61.4742 57.4358 61.6927 57.3716 61.8919C57.4423 61.6734 57.5001 61.4614 57.5515 61.2557Z" fill="#009294" style="fill:#009294;fill:color(display-p3 0.0000 0.5725 0.5804);fill-opacity:1;"/>
<path d="M57.2687 35.7766C57.2944 35.8537 57.3265 35.9308 57.3522 36.0079C57.3265 35.9308 57.3008 35.8537 57.2687 35.7766Z" fill="#009294" style="fill:#009294;fill:color(display-p3 0.0000 0.5725 0.5804);fill-opacity:1;"/>
<path d="M54.6467 66.3066C55.0773 65.6833 55.0066 64.7001 54.6082 64.1282C54.0491 63.3185 53.3808 62.9586 53.3808 62.9586L29.8809 49.4447L14.7605 58.2291C14.7605 58.2291 9.0028 61.5385 7.02358 62.7209C5.19217 63.8133 4.37607 66.0495 6.336 67.4183C7.06857 67.9259 8.49514 68.8191 8.49514 68.8191L29.6817 81.0543L52.8603 67.4825C54.2612 66.5958 54.6467 66.3066 54.6467 66.3066Z" fill="#B19C51" style="fill:#B19C51;fill:color(display-p3 0.6941 0.6118 0.3176);fill-opacity:1;"/>
<path d="M54.2741 34.7356C54.7882 34.003 54.9552 32.7243 54.2291 31.6704C53.0917 30.9378 51.7294 30.0639 50.0201 29.1129L3.59214 2.05292L0 0.0351562C0.411265 0.761295 0.494803 0.966928 0.803251 1.96296C0.957475 2.46419 1.19524 3.5052 1.35589 4.88679C1.9021 9.64204 1.47156 27.8019 1.47156 27.8019C1.47156 27.8019 1.34304 30.4687 2.68607 32.2616C3.90701 33.8938 6.04045 35.8602 10.3009 38.1864L29.8809 49.4448L52.7447 36.1558C52.7447 36.1558 53.5801 35.7188 54.2741 34.7356Z" fill="#EED927" style="fill:#EED927;fill:color(display-p3 0.9333 0.8510 0.1529);fill-opacity:1;"/>
<g style="mix-blend-mode:darken">
<path d="M57.095 35.3139C57.1528 35.4617 57.2106 35.616 57.2685 35.7702C57.2171 35.616 57.1592 35.4682 57.095 35.3139Z" fill="#D0DD30" style="fill:#D0DD30;fill:color(display-p3 0.8157 0.8667 0.1882);fill-opacity:1;"/>
</g>
<g style="mix-blend-mode:darken">
<path d="M57.6223 60.9858C57.603 61.0758 57.5773 61.1658 57.5516 61.2557C57.5773 61.1658 57.5966 61.0758 57.6223 60.9858Z" fill="#D0DD30" style="fill:#D0DD30;fill:color(display-p3 0.8157 0.8667 0.1882);fill-opacity:1;"/>
</g>
<g style="mix-blend-mode:darken">
<path d="M57.3711 61.8984C57.3711 61.8984 57.3648 61.917 57.3586 61.9294C57.3586 61.917 57.3648 61.9046 57.3711 61.8984Z" fill="#D0DD30" style="fill:#D0DD30;fill:color(display-p3 0.8157 0.8667 0.1882);fill-opacity:1;"/>
</g>
<g style="mix-blend-mode:darken">
<path d="M57.8083 59.9706C57.789 60.0926 57.7697 60.2212 57.744 60.3561C57.7697 60.2276 57.789 60.0991 57.8083 59.9706Z" fill="#D0DD30" style="fill:#D0DD30;fill:color(display-p3 0.8157 0.8667 0.1882);fill-opacity:1;"/>
</g>
<path d="M54.6147 64.1282C55.0066 64.7001 55.0838 65.6833 54.6532 66.3066C54.6532 66.3066 56.4525 64.8864 57.365 61.9369C57.365 61.924 57.3714 61.9112 57.3778 61.9048C57.4421 61.6991 57.4999 61.4871 57.5578 61.2686C57.5835 61.1786 57.6092 61.0822 57.6285 60.9987C57.6734 60.7931 57.7184 60.581 57.757 60.3689C57.7827 60.234 57.802 60.1055 57.8212 59.9834C57.8469 59.8163 57.8662 59.6492 57.8791 59.4757C57.9112 59.1673 57.9112 58.9809 57.9112 58.9809V39.7029C57.9112 38.2506 57.6863 37.0297 57.3586 36.0144C57.3329 35.9373 57.3072 35.8601 57.275 35.783C57.2172 35.6288 57.1594 35.4746 57.1015 35.3268C57.0758 35.2625 57.0437 35.1918 57.018 35.1276C56.3176 33.5339 55.3729 32.5636 54.7817 32.0817C54.6082 31.9467 54.4347 31.8118 54.242 31.6897C54.9681 32.7435 54.801 34.0223 54.2869 34.7549C53.5929 35.7316 52.7575 36.175 52.7575 36.175L29.8938 49.464L53.3937 62.9779C53.3937 62.9779 54.0684 63.3378 54.6211 64.1474L54.6147 64.1282Z" fill="#928350" style="fill:#928350;fill:color(display-p3 0.5725 0.5137 0.3137);fill-opacity:1;"/>
</svg>
