<svg width="111" height="46" viewBox="0 0 111 46" fill="none" xmlns="http://www.w3.org/2000/svg">
<path d="M32.9896 33.7693C32.9789 33.8657 32.9682 33.9585 32.9575 34.0513C32.9718 33.9442 32.9825 33.8514 32.9896 33.7693Z" fill="#009294" style="fill:#009294;fill:color(display-p3 0.0000 0.5725 0.5804);fill-opacity:1;"/>
<path d="M32.9218 34.2654C32.9003 34.3868 32.8789 34.5046 32.8504 34.6152C32.8789 34.4903 32.9003 34.3725 32.9218 34.2654Z" fill="#009294" style="fill:#009294;fill:color(display-p3 0.0000 0.5725 0.5804);fill-opacity:1;"/>
<path d="M32.8111 34.7651C32.7789 34.8865 32.7468 35.0078 32.7111 35.1185C32.7504 34.9971 32.7825 34.8793 32.8111 34.7651Z" fill="#009294" style="fill:#009294;fill:color(display-p3 0.0000 0.5725 0.5804);fill-opacity:1;"/>
<path d="M32.6541 20.6134C32.6684 20.6562 32.6862 20.6991 32.7005 20.7419C32.6862 20.6991 32.672 20.6562 32.6541 20.6134Z" fill="#009294" style="fill:#009294;fill:color(display-p3 0.0000 0.5725 0.5804);fill-opacity:1;"/>
<path d="M31.1978 37.5705C31.4369 37.2243 31.3977 36.6782 31.1764 36.3606C30.8659 35.9108 30.4947 35.711 30.4947 35.711L17.4423 28.205L9.04402 33.0841C9.04402 33.0841 5.84605 34.9222 4.74675 35.5789C3.72954 36.1857 3.27626 37.4277 4.36485 38.188C4.77173 38.4699 5.56409 38.966 5.56409 38.966L17.3316 45.7617L30.2056 38.2237C30.9837 37.7311 31.1978 37.5705 31.1978 37.5705Z" fill="#B19C51" style="fill:#B19C51;fill:color(display-p3 0.6941 0.6118 0.3176);fill-opacity:1;"/>
<path d="M30.9908 20.0352C31.2764 19.6283 31.3692 18.918 30.9659 18.3327C30.3341 17.9258 29.5775 17.4404 28.6281 16.9122L2.84086 1.88244L0.845703 0.761719C1.07413 1.16503 1.12053 1.27925 1.29185 1.83247C1.37751 2.11086 1.50957 2.68907 1.5988 3.45644C1.90218 6.09762 1.66304 16.1841 1.66304 16.1841C1.66304 16.1841 1.59166 17.6653 2.33761 18.6611C3.01575 19.5676 4.20072 20.6598 6.56707 21.9518L17.4423 28.205L30.1414 20.824C30.1414 20.824 30.6054 20.5813 30.9908 20.0352Z" fill="#EED927" style="fill:#EED927;fill:color(display-p3 0.9333 0.8510 0.1529);fill-opacity:1;"/>
<g style="mix-blend-mode:darken">
<path d="M32.5577 20.3564C32.5898 20.4385 32.6219 20.5242 32.654 20.6098C32.6255 20.5242 32.5934 20.4421 32.5577 20.3564Z" fill="#D0DD30" style="fill:#D0DD30;fill:color(display-p3 0.8157 0.8667 0.1882);fill-opacity:1;"/>
</g>
<g style="mix-blend-mode:darken">
<path d="M32.8504 34.6152C32.8397 34.6652 32.8254 34.7152 32.8111 34.7651C32.8254 34.7152 32.8361 34.6652 32.8504 34.6152Z" fill="#D0DD30" style="fill:#D0DD30;fill:color(display-p3 0.8157 0.8667 0.1882);fill-opacity:1;"/>
</g>
<g style="mix-blend-mode:darken">
<path d="M32.7114 35.122C32.7114 35.122 32.7077 35.1331 32.704 35.1405C32.704 35.1331 32.7077 35.1257 32.7114 35.122Z" fill="#D0DD30" style="fill:#D0DD30;fill:color(display-p3 0.8157 0.8667 0.1882);fill-opacity:1;"/>
</g>
<g style="mix-blend-mode:darken">
<path d="M32.9539 34.0513C32.9432 34.1191 32.9325 34.1905 32.9182 34.2654C32.9325 34.1941 32.9432 34.1227 32.9539 34.0513Z" fill="#D0DD30" style="fill:#D0DD30;fill:color(display-p3 0.8157 0.8667 0.1882);fill-opacity:1;"/>
</g>
<path d="M31.1801 36.3605C31.3978 36.6782 31.4407 37.2243 31.2015 37.5705C31.2015 37.5705 32.2009 36.7817 32.7077 35.1435C32.7077 35.1363 32.7113 35.1292 32.7149 35.1256C32.7506 35.0114 32.7827 34.8936 32.8148 34.7723C32.8291 34.7223 32.8434 34.6688 32.8541 34.6224C32.879 34.5082 32.904 34.3904 32.9254 34.2726C32.9397 34.1976 32.9504 34.1263 32.9611 34.0584C32.9754 33.9656 32.9861 33.8728 32.9933 33.7765C33.0111 33.6052 33.0111 33.5016 33.0111 33.5016V22.7942C33.0111 21.9875 32.8862 21.3094 32.7042 20.7455C32.6899 20.7026 32.6756 20.6598 32.6578 20.617C32.6256 20.5313 32.5935 20.4457 32.5614 20.3636C32.5471 20.3279 32.5293 20.2886 32.515 20.2529C32.126 19.3678 31.6013 18.8288 31.2729 18.5611C31.1766 18.4862 31.0802 18.4112 30.9731 18.3434C31.3764 18.9288 31.2836 19.639 30.9981 20.0459C30.6126 20.5884 30.1486 20.8347 30.1486 20.8347L17.4496 28.2157L30.502 35.7217C30.502 35.7217 30.8767 35.9215 31.1837 36.3713L31.1801 36.3605Z" fill="#928350" style="fill:#928350;fill:color(display-p3 0.5725 0.5137 0.3137);fill-opacity:1;"/>
<path d="M86.9445 17.1014C88.34 17.0942 89.7355 17.0764 91.1275 17.1371C91.3809 17.1478 91.7129 17.5654 91.8378 17.8687C93.7294 22.4337 95.5961 27.0094 97.4664 31.5815C97.7126 32.1811 97.966 32.7771 98.3087 33.5945C98.505 33.159 98.6299 32.9163 98.7263 32.6629C100.568 27.7625 102.424 22.8656 104.23 17.9473C104.483 17.2584 104.83 17.0585 105.529 17.0835C106.914 17.1335 107.824 17.0978 109.291 17.187C108.035 18.2935 108.22 20.4171 108.352 22.1981C108.702 26.9523 109.127 31.7028 109.541 36.4534C109.651 37.7311 109.562 38.6984 110.687 39.323H104.258C104.398 39.2337 104.505 39.1731 104.601 39.1088C105.329 38.6377 105.633 37.7383 105.593 36.5033C105.547 34.965 105.404 33.4303 105.294 31.892C105.051 28.5548 104.801 25.2176 104.548 21.8805C104.523 21.545 104.451 21.213 104.187 20.8526C103.68 22.1589 103.166 23.4652 102.667 24.7751C100.957 29.2544 99.2616 33.7372 97.5342 38.2058C97.42 38.5021 97.1844 38.9446 96.831 38.9625C96.4206 38.9768 96.1743 38.4949 96.0423 38.1773C93.8044 32.7307 91.6022 27.2699 89.3893 21.8162C89.3001 21.5985 89.1895 21.3915 88.9718 20.9311C88.8754 21.9376 88.7897 22.6978 88.7326 23.458C88.4471 27.327 88.1865 31.1996 87.8832 35.0685C87.7404 36.8888 87.9403 38.4307 89.5143 39.3622H85.2455C85.7095 38.7483 86.3484 38.0916 86.741 37.31C87.0301 36.7282 87.048 35.9929 87.1015 35.3184C87.4549 30.7998 87.7832 26.2813 88.1151 21.7591C88.1366 21.4629 88.1401 21.1666 88.158 20.8704C88.2008 20.0959 88.2365 19.2607 87.9188 18.529C87.6297 17.858 86.6732 17.1371 86.5875 17.1049C86.5875 17.1049 86.6447 17.1049 86.9373 17.0978L86.9445 17.1014Z" fill="black" style="fill:black;fill-opacity:1;"/>
<path d="M84.8209 32.8521C83.6431 37.8489 79.0032 39.969 74.3918 39.2159C69.3629 38.395 66.5254 35.2291 65.9936 30.0753C65.4868 25.1284 66.8823 20.9775 71.2188 18.1685C73.5317 16.6695 76.1514 16.3376 78.839 16.6731C80.1275 16.8337 81.3945 17.1763 82.6509 17.5082C82.9079 17.5761 83.2255 17.9508 83.2576 18.2185C83.4968 20.0638 83.3968 20.2743 83.2683 22.1018C83.1327 21.5914 82.9471 21.263 82.6259 20.8204C81.78 19.6462 80.62 18.6789 79.2673 18.1436C78.0823 17.6724 76.801 17.3976 75.5233 17.4297C74.374 17.4583 73.2354 17.7617 72.2503 18.3648C71.2188 18.9966 70.4051 19.9281 69.8304 20.9882C69.6948 21.238 69.5735 21.495 69.4628 21.7555C67.5569 26.242 69.2558 32.4202 73.1283 35.0864C76.0194 37.0815 80.0418 37.1815 82.658 35.197C83.5289 34.5367 84.1713 33.573 84.8174 32.8592L84.8209 32.8521Z" fill="black" style="fill:black;fill-opacity:1;"/>
<path d="M43.515 39.1338C44.3431 38.5056 44.3145 37.1136 44.3109 35.5611C44.2931 30.4036 44.3109 25.2497 44.3002 20.0923C44.2967 18.3434 44.2503 17.4833 43.2545 16.8337C43.7256 16.8337 43.904 16.8337 44.136 16.8337C46.8986 16.8301 48.5011 16.8122 51.2637 16.8337C54.6044 16.8658 57.6881 17.6903 60.1544 20.0709C65.5403 25.2712 63.7736 34.7616 56.8708 37.9096C55.2004 38.6698 53.4516 39.1088 51.6206 39.1231C48.5332 39.1481 46.6059 39.1302 43.515 39.1302V39.1338ZM59.1586 28.0587C59.1301 25.4461 58.2485 22.5229 56.5246 20.4278C54.7864 18.3184 52.6057 17.187 49.7932 17.7724C48.7224 17.9936 48.2227 18.6468 48.2192 19.7247C48.2085 25.057 48.2049 30.3858 48.2192 35.7181C48.2227 37.2814 48.9937 38.188 50.5463 38.345C53.2731 38.6163 55.6002 37.8025 57.2741 35.5432C58.7518 33.5516 59.1479 31.2352 59.1551 28.0587H59.1586Z" fill="black" style="fill:black;fill-opacity:1;"/>
</svg>
